<svg width="311" height="87" viewBox="0 0 311 87" fill="none" xmlns="http://www.w3.org/2000/svg">
<g clip-path="url(#clip0_9_10)">
<path d="M7.01538 13.4747H20.8512V0H7.01538V13.4747Z" fill="#2D2D2D"/>
<path d="M7.0155 68.0453C7.0155 69.944 6.68028 71.2712 6.02018 71.9882C5.33596 72.7305 4.45544 73.0924 3.32924 73.0924C2.61173 73.0924 1.77253 73.0002 0.836901 72.8186L0 72.6557V85.3427L0.586635 85.4695C1.4729 85.6631 2.33047 85.81 3.13293 85.9062C3.94342 86.0036 4.94219 86.053 6.10283 86.053C10.8935 86.053 14.5878 84.6511 17.0813 81.8846C19.5828 79.1074 20.8525 75.023 20.8525 69.1843V17.4003H7.0155V68.0453Z" fill="white"/>
<path d="M53.5117 47.4831C53.5117 50.6581 52.8769 53.0615 51.6244 54.6277C50.3673 56.1992 48.6855 56.9629 46.4813 56.9629C44.2851 56.9629 42.6481 56.2058 41.4748 54.6463C40.2935 53.0775 39.6942 50.6675 39.6942 47.4831V17.4013H25.8584V52.1068C25.8584 58.1752 27.2234 62.0767 29.9166 65.5695C32.6282 69.0917 36.4993 70.8769 41.4231 70.8769C43.0602 70.8769 44.5584 70.6392 45.8763 70.1719C47.1839 69.7046 48.395 69.0624 49.4776 68.2613C50.5498 67.4668 51.5383 66.5442 52.4154 65.5174C52.7931 65.0755 53.1593 64.747 53.5117 64.2824V70.8742H67.3487V17.4013H53.5117V47.4831Z" fill="white"/>
<path d="M124.791 17.4006C121.699 17.4006 118.901 18.1216 116.473 19.5449C114.334 20.7986 112.349 22.5985 110.562 24.9057C109.402 22.6719 107.85 20.8948 105.938 19.6143C103.743 18.1456 101.111 17.4006 98.1167 17.4006C96.4773 17.4006 94.9665 17.6382 93.6268 18.1056C92.2882 18.5729 91.0622 19.2164 89.9807 20.0176C88.9062 20.8133 87.9166 21.7359 87.0418 22.76C86.6653 23.202 86.2991 23.6546 85.9466 24.1193V17.4006H72.1096V70.8735H85.9466V41.7397C85.9466 38.5593 86.5574 36.152 87.7616 34.5831C88.9636 33.0196 90.5892 32.2599 92.7325 32.2599C94.8655 32.2599 96.4463 33.0129 97.5656 34.5644C98.6987 36.1359 99.2739 38.55 99.2739 41.7397V70.8735H113.111V41.7397C113.111 38.5593 113.722 36.152 114.926 34.5831C116.127 33.0196 117.753 32.2599 119.897 32.2599C122.03 32.2599 123.611 33.0129 124.73 34.5644C125.863 36.1359 126.438 38.55 126.438 41.7397V70.8735H140.274V36.9264C140.274 30.5976 138.89 25.7108 136.158 22.4009C133.419 19.0829 129.594 17.4006 124.791 17.4006Z" fill="white"/>
<path d="M223.785 17.4016L214.752 51.8694L205.331 17.4002H190.628L208.023 70.8772C207.583 71.8252 206.423 72.4834 205.96 72.8346C205.456 73.2164 204.724 73.41 203.782 73.41C203.05 73.41 202.237 73.2338 201.365 72.8866C200.466 72.5275 199.62 71.8919 198.85 71.3552L198.165 70.8772L191.837 79.3196C191.837 79.3196 193.847 81.5921 194.491 82.2423C195.906 83.671 197.297 84.4173 199.082 85.0662C200.886 85.7218 202.989 86.0529 205.332 86.0529C207.242 86.0529 209.664 85.7859 211.143 85.2572C212.65 84.7177 214.013 83.8298 215.199 82.6202C216.365 81.4292 217.441 79.8777 218.401 78.0084C219.344 76.1685 220.241 74.6024 221.068 71.9747L238.235 17.4016H223.785Z" fill="white"/>
<path d="M190.114 32.965C188.97 29.6243 187.661 26.7563 185.755 24.4411C183.844 22.1219 181.62 20.3474 179.146 19.1698C176.677 17.9962 174.088 17.4007 171.451 17.4007C168.069 17.4007 165.211 18.2178 162.958 19.8307C161.317 21.0057 159.84 22.4343 158.547 24.0926V17.4007H144.71V86.0534H158.547V64.6303C159.803 66.0616 161.255 67.3581 162.882 68.497C165.133 70.0765 168.016 70.8763 171.451 70.8763C174.142 70.8763 176.758 70.2808 179.227 69.1072C181.704 67.9282 183.915 66.1537 185.8 63.8305C187.676 61.5193 188.971 58.654 190.114 55.312V56.2573C191.258 52.9154 191.837 49.0286 191.837 44.7066V44.517C191.837 40.1964 191.258 36.3096 190.114 32.965ZM169.748 56.8141C163.562 56.8141 158.546 50.9807 158.546 43.7853C158.546 36.59 163.562 30.7579 169.748 30.7579C175.935 30.7579 180.95 36.59 180.95 43.7853C180.95 50.9807 175.935 56.8141 169.748 56.8141Z" fill="white"/>
<path d="M271.148 8.75883H311V55.1085H271.148V8.75883Z" fill="#00D6ED"/>
<path d="M262.409 18.9223H302.261V65.272H262.409V18.9223Z" fill="#00AAFF"/>
<path d="M252.072 30.9447H291.924V77.2944H272.12C261.048 77.2944 252.072 66.8559 252.072 53.978V30.9447Z" fill="#0C70F1"/>
</g>
<defs>
<clipPath id="clip0_9_10">
<rect width="311" height="86.0534" fill="white"/>
</clipPath>
</defs>
</svg>
